<svg id="圖層_1" data-name="圖層 1" xmlns="http://www.w3.org/2000/svg" viewBox="0 0 24 24"><defs><style>.cls-1{fill:#080808;}</style></defs><title>hostgroup</title><circle class="cls-1" cx="18" cy="18" r="1.5"/><circle class="cls-1" cx="18" cy="12" r="1.5"/><circle class="cls-1" cx="18" cy="6" r="1.5"/><path class="cls-1" d="M23.5,4a2,2,0,0,0-2-2H2.5a2,2,0,0,0-2,2V8A2,2,0,0,0,.78,9,2,2,0,0,0,.5,10v4a2,2,0,0,0,.28,1A2,2,0,0,0,.5,16v4a2,2,0,0,0,2,2h19a2,2,0,0,0,2-2V16a2,2,0,0,0-.28-1,2,2,0,0,0,.28-1V10a2,2,0,0,0-.28-1,2,2,0,0,0,.28-1Zm-2,16H2.5V16h19ZM2.5,4h19V8H2.5Zm19,10H2.5V10h19Z"/><path class="cls-1" d="M4.5,5a.5.5,0,0,0-.5.5v1a.5.5,0,0,0,1,0v-1A.5.5,0,0,0,4.5,5Z"/><path class="cls-1" d="M6,5a.5.5,0,0,0-.5.5v1a.5.5,0,0,0,1,0v-1A.5.5,0,0,0,6,5Z"/><path class="cls-1" d="M7.5,5a.5.5,0,0,0-.5.5v1a.5.5,0,0,0,1,0v-1A.5.5,0,0,0,7.5,5Z"/><path class="cls-1" d="M4.5,13a.5.5,0,0,0,.5-.5v-1a.5.5,0,0,0-1,0v1A.5.5,0,0,0,4.5,13Z"/><path class="cls-1" d="M6,13a.5.5,0,0,0,.5-.5v-1a.5.5,0,0,0-1,0v1A.5.5,0,0,0,6,13Z"/><path class="cls-1" d="M7.5,13a.5.5,0,0,0,.5-.5v-1a.5.5,0,0,0-1,0v1A.5.5,0,0,0,7.5,13Z"/><path class="cls-1" d="M4.5,19a.5.5,0,0,0,.5-.5v-1a.5.5,0,0,0-1,0v1A.5.5,0,0,0,4.5,19Z"/><path class="cls-1" d="M6,19a.5.5,0,0,0,.5-.5v-1a.5.5,0,0,0-1,0v1A.5.5,0,0,0,6,19Z"/><path class="cls-1" d="M7.5,19a.5.5,0,0,0,.5-.5v-1a.5.5,0,0,0-1,0v1A.5.5,0,0,0,7.5,19Z"/></svg>