<svg id="圖層_1" data-name="圖層 1" xmlns="http://www.w3.org/2000/svg" viewBox="0 0 24 24"><title>usergroup</title><path d="M20.69,12.24a10.74,10.74,0,0,1-1.52-.73,6.86,6.86,0,0,0,1.41-2.09A1.27,1.27,0,0,0,21,9a2.51,2.51,0,0,0,.32-2,1.61,1.61,0,0,0-.37-.6,7.46,7.46,0,0,0-.22-1.72,4.15,4.15,0,0,0-4.17-2.83,4.07,4.07,0,0,0-4,2.56,5.19,5.19,0,0,0-.71-.06c-.17,0-.32,0-.47,0a4.21,4.21,0,0,0-4-2.54A4.15,4.15,0,0,0,3.16,4.63a7.39,7.39,0,0,0-.22,1.72,1.61,1.61,0,0,0-.37.59A2.52,2.52,0,0,0,2.89,9a1.25,1.25,0,0,0,.39.43,8.12,8.12,0,0,0,1.44,2.09,12.6,12.6,0,0,1-1.56.73C.26,13.34.29,15.69.32,17.4a1.85,1.85,0,0,0,1.75,1.85H4a12.36,12.36,0,0,0-.17,1.51,2,2,0,0,0,.54,1.45,1.66,1.66,0,0,0,1.21.54H18.49a1.68,1.68,0,0,0,1.22-.55,1.94,1.94,0,0,0,.53-1.42,11.29,11.29,0,0,0-.2-1.53h1.74a1.85,1.85,0,0,0,1.75-1.85C23.55,15.69,23.59,13.34,20.69,12.24ZM14.55,7.51a6.21,6.21,0,0,1,.17,1.66.66.66,0,0,0,.46.73,1.32,1.32,0,0,1-.21.84,1,1,0,0,0-.45.56c-.16.55-1.27,2.68-2.68,2.68s-2.53-2.13-2.71-2.76a1.09,1.09,0,0,0-.44-.51c-.25-.48-.25-.77-.2-.81a.75.75,0,0,0,.47-.74,6.21,6.21,0,0,1,.17-1.66,2.64,2.64,0,0,1,2.72-1.72A2.61,2.61,0,0,1,14.55,7.51ZM2.07,17.75c-.08,0-.25-.18-.25-.37,0-1.87.08-3.05,1.87-3.73a15.32,15.32,0,0,0,2.73-1.4.75.75,0,0,0,0-1.26A6,6,0,0,1,4.62,8.74a.79.79,0,0,0-.41-.46c-.28-.52-.28-.83-.23-.87a.75.75,0,0,0,.46-.73A6.22,6.22,0,0,1,4.61,5,2.64,2.64,0,0,1,7.33,3.29,2.67,2.67,0,0,1,9.87,4.7,4,4,0,0,0,7.66,7.13a7.41,7.41,0,0,0-.22,1.71,1.6,1.6,0,0,0-.37.59,2.51,2.51,0,0,0,.32,2.05,1.23,1.23,0,0,0,.38.43A7.07,7.07,0,0,0,9.06,14a6.73,6.73,0,0,1-1.4.72,5.28,5.28,0,0,0-3.19,3Zm16.55,3.42a.22.22,0,0,1-.13.08H5.61a.2.2,0,0,1-.12-.07.47.47,0,0,1-.13-.33c.15-2.64,1-4,2.82-4.7A7.9,7.9,0,0,0,10.24,15a3.13,3.13,0,0,0,1.6.46,3.21,3.21,0,0,0,1.83-.62,8.81,8.81,0,0,0,2.25,1.23,3.85,3.85,0,0,1,2.35,2.34.71.71,0,0,0,0,.07.74.74,0,0,0,.2.49,9.18,9.18,0,0,1,.29,1.88A.43.43,0,0,1,18.62,21.17ZM22,17.38c0,.19-.17.37-.25.37H19.6a5.3,5.3,0,0,0-3.15-3.07,7.7,7.7,0,0,1-1.67-.87,7.17,7.17,0,0,0,1.11-1.89,1.28,1.28,0,0,0,.38-.45,2.56,2.56,0,0,0,.29-2.17,1.5,1.5,0,0,0-.34-.49A7.45,7.45,0,0,0,16,7.12a4,4,0,0,0-2-2.33,2.53,2.53,0,0,1,2.52-1.5A2.61,2.61,0,0,1,19.23,5a6.21,6.21,0,0,1,.17,1.66.8.8,0,0,0,.46.77,1.17,1.17,0,0,1-.19.78,1.17,1.17,0,0,0-.47.6,4.71,4.71,0,0,1-1.66,2.06.75.75,0,0,0-.13,1.29,13.59,13.59,0,0,0,2.75,1.48C21.94,14.32,22.05,15.51,22,17.38Z"/></svg>