<svg id="圖層_1" data-name="圖層 1" xmlns="http://www.w3.org/2000/svg" viewBox="0 0 24 24"><title>profile</title><path d="M17.56,14.11a7.48,7.48,0,0,1-1.77-.82,9.46,9.46,0,0,0,1.64-2.68,1.25,1.25,0,0,0,.46-.45c.73-1.29.9-2.32.52-3.14a1.89,1.89,0,0,0-.51-.66,9.75,9.75,0,0,0-.29-2.18A5.5,5.5,0,0,0,12.08.43,5.5,5.5,0,0,0,6.56,4.18a9.64,9.64,0,0,0-.29,2.17A1.9,1.9,0,0,0,5.76,7c-.38.82-.21,1.85.52,3.15a1.24,1.24,0,0,0,.46.44,9.46,9.46,0,0,0,1.64,2.68,7.47,7.47,0,0,1-1.77.82c-2.36.75-5.53,2.33-5.77,7.42a1,1,0,0,0,.79,1,54.3,54.3,0,0,0,10.46.94,54.29,54.29,0,0,0,10.46-.94,1,1,0,0,0,.79-1C23.09,16.43,19.92,14.85,17.56,14.11ZM7.91,9A2.14,2.14,0,0,1,7.57,7.9a1,1,0,0,0,.71-1,8.2,8.2,0,0,1,.21-2.18,3.45,3.45,0,0,1,3.59-2.28,3.45,3.45,0,0,1,3.59,2.26,8.23,8.23,0,0,1,.22,2.19,1,1,0,0,0,.71,1A2.15,2.15,0,0,1,16.25,9a1.26,1.26,0,0,0-.63.72c-.21.72-1.68,3.54-3.54,3.54S8.75,10.42,8.54,9.7A1.25,1.25,0,0,0,7.91,9Zm4.17,12.5a56.68,56.68,0,0,1-9.17-.73c.43-3.09,2.31-4.11,4.3-4.74A9.22,9.22,0,0,0,10,14.63a4,4,0,0,0,4.25,0A9.22,9.22,0,0,0,17,16c2,.63,3.87,1.65,4.3,4.74A56.67,56.67,0,0,1,12.08,21.49Z"/></svg>