<?xml version="1.0" encoding="UTF-8"?>
<svg width="20px" height="20px" viewBox="0 0 20 20" version="1.1" xmlns="http://www.w3.org/2000/svg" xmlns:xlink="http://www.w3.org/1999/xlink">
    <!-- Generator: Sketch 39.1 (31720) - http://www.bohemiancoding.com/sketch -->
    <title>icon/20/circle-prompt</title>
    <desc>Created with Sketch.</desc>
    <defs></defs>
    <g id="Output-temp" stroke="none" stroke-width="1" fill="none" fill-rule="evenodd">
        <g id="_archive" transform="translate(-1822.000000, -212.000000)" fill="#B8BDBF">
            <path d="M1831.7796,214 C1827.48315,214 1824,217.483774 1824,221.78 C1824,226.077028 1827.48315,229.56 1831.7796,229.56 C1836.07685,229.56 1839.56,226.077028 1839.56,221.78 C1839.56,217.483774 1836.07685,214 1831.7796,214 L1831.7796,214 Z M1834.34477,218.196418 C1834.10819,217.801945 1833.77494,217.490109 1833.34322,217.261689 C1832.91151,217.033269 1832.41358,216.9175 1831.84906,216.9175 C1831.24311,216.9175 1830.71188,217.054708 1830.25679,217.328734 C1829.80171,217.60276 1829.45606,217.948119 1829.21807,218.367148 C1828.98008,218.784229 1828.8625,219.197022 1828.8625,219.603579 C1828.8625,219.799646 1828.93723,219.98246 1829.08668,220.151631 C1829.23578,220.320412 1829.41993,220.405777 1829.63845,220.405777 C1830.00641,220.405777 1830.25821,220.163714 1830.39102,219.679589 C1830.53091,219.216512 1830.70232,218.866476 1830.90418,218.629091 C1831.1064,218.391316 1831.4216,218.272818 1831.84906,218.272818 C1832.21561,218.272818 1832.51451,218.391316 1832.74577,218.625972 C1832.97668,218.861798 1833.09284,219.151027 1833.09284,219.493657 C1833.09284,219.669064 1833.05565,219.831999 1832.97951,219.9809 C1832.90337,220.131751 1832.81058,220.2674 1832.69867,220.389016 C1832.58782,220.511022 1832.40791,220.692277 1832.15894,220.931221 C1831.87562,221.205247 1831.65003,221.442632 1831.48251,221.642208 C1831.31535,221.840224 1831.18113,222.071762 1831.07984,222.334874 C1830.97891,222.598375 1830.92791,222.910601 1830.92791,223.269992 C1830.92791,223.556102 1830.99697,223.772438 1831.13544,223.918612 C1831.27356,224.064785 1831.44391,224.136117 1831.64578,224.136117 C1832.03464,224.136117 1832.26554,223.913934 1832.34027,223.469567 C1832.38312,223.259078 1832.41499,223.111735 1832.43589,223.029489 C1832.45785,222.945683 1832.48689,222.861877 1832.52691,222.778071 C1832.56586,222.694265 1832.62536,222.603053 1832.70398,222.502486 C1832.78437,222.401918 1832.89097,222.28459 1833.02236,222.15245 C1833.50082,221.681967 1833.83302,221.346743 1834.01682,221.147558 C1834.2024,220.947982 1834.36141,220.711766 1834.49705,220.43774 C1834.63127,220.163714 1834.6975,219.844082 1834.6975,219.481573 C1834.6975,219.018886 1834.57992,218.590891 1834.34477,218.196418 M1832.32929,224.997954 C1832.49539,225.180768 1832.57967,225.409188 1832.57967,225.678927 C1832.57967,225.978679 1832.49255,226.213336 1832.31689,226.385236 C1832.1423,226.555966 1831.93901,226.6425 1831.70952,226.6425 C1831.47295,226.6425 1831.26542,226.557135 1831.08834,226.388354 C1830.91127,226.219183 1830.82273,225.981797 1830.82273,225.678927 C1830.82273,225.409188 1830.90843,225.180768 1831.07984,224.997954 C1831.25161,224.813971 1831.46056,224.72081 1831.70952,224.72081 C1831.95424,224.72081 1832.16178,224.813971 1832.32929,224.997954" id="icom/circle-prompt"></path>
        </g>
    </g>
</svg>