<?xml version="1.0" encoding="UTF-8"?>
<svg width="18px" height="18px" viewBox="0 0 18 18" version="1.1" xmlns="http://www.w3.org/2000/svg" xmlns:xlink="http://www.w3.org/1999/xlink">
    <title>icon-time</title>
    <g id="icon-time">
        <path d="M8.9925,1.5 C4.8525,1.5 1.5,4.86 1.5,9 C1.5,13.14 4.8525,16.5 8.9925,16.5 C13.14,16.5 16.5,13.14 16.5,9 C16.5,4.86 13.14,1.5 8.9925,1.5 L8.9925,1.5 Z M9,15 C5.685,15 3,12.315 3,9 C3,5.685 5.685,3 9,3 C12.315,3 15,5.685 15,9 C15,12.315 12.315,15 9,15 Z M9.375,5.25 L8.25,5.25 L8.25,9.75 L12.1875,12.1125 L12.75,11.19 L9.375,9.1875 L9.375,5.25 Z" fill=""></path>
    </g>
</svg>
