<svg id="圖層_1" data-name="圖層 1" xmlns="http://www.w3.org/2000/svg" viewBox="0 0 24 24"><defs><style>.cls-1{fill:#080808;}</style></defs><title>template</title><path class="cls-1" d="M21,.5H3a2,2,0,0,0-2,2V22a2,2,0,0,0,2,2H21a2,2,0,0,0,2-2V2.5A2,2,0,0,0,21,.5Zm0,2v2H3v-2ZM3,22V6.5H21V22Z"/><path class="cls-1" d="M12.5,4H20a.5.5,0,0,0,0-1H12.5a.5.5,0,0,0,0,1Z"/><path class="cls-1" d="M4.5,4a.43.43,0,0,0,.19,0,.35.35,0,0,0,.16-.11A.47.47,0,0,0,5,3.5a.43.43,0,0,0,0-.19.36.36,0,0,0-.11-.16.5.5,0,0,0-.7,0A.35.35,0,0,0,4,3.31.43.43,0,0,0,4,3.5a.51.51,0,0,0,.5.5Z"/><path class="cls-1" d="M5.65,3.85A.36.36,0,0,0,5.81,4,.44.44,0,0,0,6,4a.47.47,0,0,0,.35-.15.36.36,0,0,0,.11-.16.6.6,0,0,0,0-.19.51.51,0,0,0-.15-.35A.49.49,0,0,0,5.81,3a.36.36,0,0,0-.16.11.47.47,0,0,0-.15.35.4.4,0,0,0,0,.19A.35.35,0,0,0,5.65,3.85Z"/><path class="cls-1" d="M8,8H4.5a1,1,0,0,0,0,2H8A1,1,0,0,0,8,8Z"/><path class="cls-1" d="M8,11.67H4.5a1,1,0,0,0,0,2H8a1,1,0,0,0,0-2Z"/><path class="cls-1" d="M8,15.33H4.5a1,1,0,0,0,0,2H8a1,1,0,0,0,0-2Z"/><path class="cls-1" d="M8,19H4.5a1,1,0,0,0,0,2H8a1,1,0,0,0,0-2Z"/><path class="cls-1" d="M14,8H10.5a1,1,0,0,0,0,2H14a1,1,0,0,0,0-2Z"/><path class="cls-1" d="M14,11.67H10.5a1,1,0,0,0,0,2H14a1,1,0,0,0,0-2Z"/><path class="cls-1" d="M14,15.33H10.5a1,1,0,0,0,0,2H14a1,1,0,0,0,0-2Z"/><path class="cls-1" d="M14,19H10.5a1,1,0,0,0,0,2H14a1,1,0,0,0,0-2Z"/><path class="cls-1" d="M19.5,8h-3a1,1,0,0,0,0,2h3a1,1,0,0,0,0-2Z"/><path class="cls-1" d="M19.5,11.67h-3a1,1,0,0,0,0,2h3a1,1,0,0,0,0-2Z"/><path class="cls-1" d="M19.5,15.33h-3a1,1,0,0,0,0,2h3a1,1,0,0,0,0-2Z"/><path class="cls-1" d="M19.5,19h-3a1,1,0,0,0,0,2h3a1,1,0,0,0,0-2Z"/></svg>