<?xml version="1.0" encoding="UTF-8"?>
<svg width="20px" height="20px" viewBox="0 0 20 20" version="1.1" xmlns="http://www.w3.org/2000/svg" xmlns:xlink="http://www.w3.org/1999/xlink">
    <!-- Generator: Sketch 39.1 (31720) - http://www.bohemiancoding.com/sketch -->
    <title>icon/20/circle-add</title>
    <desc>Created with Sketch.</desc>
    <defs></defs>
    <g id="Output-temp" stroke="none" stroke-width="1" fill="none" fill-rule="evenodd">
        <g id="_archive" transform="translate(-1146.000000, -212.000000)" fill="#B8BDBF">
            <path d="M1156.75,220.805556 L1156.75,218.858224 C1156.75,218.329341 1156.31472,217.888889 1155.77778,217.888889 C1155.23709,217.888889 1154.80556,218.322875 1154.80556,218.858224 L1154.80556,220.805556 L1152.85822,220.805556 C1152.32934,220.805556 1151.88889,221.240834 1151.88889,221.777778 C1151.88889,222.318465 1152.32287,222.75 1152.85822,222.75 L1154.80556,222.75 L1154.80556,224.697332 C1154.80556,225.226215 1155.24083,225.666667 1155.77778,225.666667 C1156.31846,225.666667 1156.75,225.232681 1156.75,224.697332 L1156.75,222.75 L1158.69733,222.75 C1159.22621,222.75 1159.66667,222.314721 1159.66667,221.777778 C1159.66667,221.237091 1159.23268,220.805556 1158.69733,220.805556 L1156.75,220.805556 Z M1155.77738,214 C1151.48216,214 1148,217.482778 1148,221.777778 C1148,226.073578 1151.48216,229.555556 1155.77738,229.555556 C1160.0734,229.555556 1163.55556,226.073578 1163.55556,221.777778 C1163.55556,217.482778 1160.0734,214 1155.77738,214 Z" id="icon/circle-add"></path>
        </g>
    </g>
</svg>