<?xml version="1.0" encoding="UTF-8"?>
<svg width="18px" height="18px" viewBox="0 0 18 18" version="1.1" xmlns="http://www.w3.org/2000/svg" xmlns:xlink="http://www.w3.org/1999/xlink">
    <!-- Generator: Sketch 39.1 (31720) - http://www.bohemiancoding.com/sketch -->
    <title>icon/18/date</title>
    <desc>Created with Sketch.</desc>
    <defs></defs>
    <g id="Output-temp" stroke="none" stroke-width="1" fill="none" fill-rule="evenodd">
        <g id="temp" transform="translate(-804.000000, -94.000000)" fill="#B8BDBF">
            <path d="M810.75,102.25 L809.25,102.25 L809.25,103.75 L810.75,103.75 L810.75,102.25 L810.75,102.25 Z M813.75,102.25 L812.25,102.25 L812.25,103.75 L813.75,103.75 L813.75,102.25 L813.75,102.25 Z M816.75,102.25 L815.25,102.25 L815.25,103.75 L816.75,103.75 L816.75,102.25 L816.75,102.25 Z M818.25,97 L817.5,97 L817.5,95.5 L816,95.5 L816,97 L810,97 L810,95.5 L808.5,95.5 L808.5,97 L807.75,97 C806.9175,97 806.2575,97.675 806.2575,98.5 L806.25,109 C806.25,109.825 806.9175,110.5 807.75,110.5 L818.25,110.5 C819.075,110.5 819.75,109.825 819.75,109 L819.75,98.5 C819.75,97.675 819.075,97 818.25,97 L818.25,97 Z M818.25,109 L807.75,109 L807.75,100.75 L818.25,100.75 L818.25,109 L818.25,109 Z" id="icon/18/date"></path>
        </g>
    </g>
</svg>